<svg width="100%" height="100%" viewBox="0 0 574 196" fill="none" xmlns="http://www.w3.org/2000/svg">
<path d="M32 1H509.452C518.037 1 526.238 4.56009 532.1 10.832L564.648 45.6546C570.015 51.3966 573 58.9629 573 66.8226V164C573 181.121 559.121 195 542 195H32C14.8792 195 1 181.121 1 164V32C1 14.8792 14.8792 1 32 1Z" stroke="url(#paint0_linear_12_9)" stroke-opacity="0.85" stroke-width="2"/>
<path d="M32 1H509.452C518.037 1 526.238 4.56009 532.1 10.832L564.648 45.6546C570.015 51.3966 573 58.9629 573 66.8226V164C573 181.121 559.121 195 542 195H32C14.8792 195 1 181.121 1 164V32C1 14.8792 14.8792 1 32 1Z" stroke="white" stroke-opacity="0.15" stroke-width="2"/>
<defs>
<linearGradient id="paint0_linear_12_9" x1="287" y1="2.54049e-08" x2="287" y2="196" gradientUnits="userSpaceOnUse">
<stop stop-color="#33CEFF"/>
<stop offset="0.562842" stop-color="#D633FF" stop-opacity="0"/>
</linearGradient>
</defs>
</svg>