<svg width="1097" height="316" viewBox="0 0 1097 316" fill="none" xmlns="http://www.w3.org/2000/svg">
<g clip-path="url(#clip0_777_845)">
<path d="M218.321 303.986C298.93 270.596 337.21 178.182 303.82 97.572C270.431 16.9624 178.016 -21.317 97.4064 12.0726C16.7968 45.4622 -21.4825 137.877 11.9071 218.486C45.2966 299.096 137.711 337.375 218.321 303.986Z" fill="#2E4DFE"/>
<path d="M218.321 303.986C298.931 270.596 337.21 178.182 303.82 97.572C270.431 16.9624 178.016 -21.317 97.4067 12.0726C16.7971 45.4622 -21.4823 137.877 11.9073 218.486C45.2969 299.096 137.711 337.375 218.321 303.986Z" fill="black"/>
<path d="M218.321 303.986C298.931 270.596 337.21 178.182 303.82 97.572C270.431 16.9624 178.016 -21.317 97.4067 12.0726C16.7971 45.4622 -21.4823 137.877 11.9073 218.486C45.2969 299.096 137.711 337.375 218.321 303.986Z" fill="url(#paint0_linear_777_845)"/>
<mask id="mask0_777_845" style="mask-type:alpha" maskUnits="userSpaceOnUse" x="-1" y="0" width="317" height="317">
<path d="M218.321 303.986C298.931 270.596 337.21 178.182 303.82 97.572C270.431 16.9624 178.016 -21.317 97.4066 12.0726C16.797 45.4622 -21.4823 137.877 11.9073 218.486C45.2968 299.096 137.711 337.375 218.321 303.986Z" fill="black"/>
</mask>
<g mask="url(#mask0_777_845)">
<path fill-rule="evenodd" clip-rule="evenodd" d="M240.852 137.519L141.023 237.347L130.097 226.421L80.3788 176.703L17.1159 240L-4.77173 218.112L80.3788 132.927L91.3403 143.889L141.023 193.572L218.964 115.631H147.038V84.668H271.815V209.481H240.852V137.519Z" fill="#F2F2F2"/>
</g>
</g>
<path fill-rule="evenodd" clip-rule="evenodd" d="M796.235 55.6562L830.581 21.3516L864.886 55.6562V86.1585L830.581 51.8539L796.235 86.1585V55.6562Z" fill="url(#paint1_linear_777_845)"/>
<path fill-rule="evenodd" clip-rule="evenodd" d="M846.125 86.1589L829.829 69.8213L813.408 86.2007V129.865L813.659 129.656V152.595H846.25V86.1589H846.125Z" fill="url(#paint2_linear_777_845)"/>
<path d="M432.197 152.294C416.81 152.294 404.816 148.136 396.214 139.821C387.612 131.506 383.311 119.846 383.311 104.841V49.6474H417.145V103.838C417.145 111.197 418.435 116.549 421.015 119.894C423.691 123.239 427.514 124.912 432.484 124.912C437.454 124.912 441.229 123.239 443.81 119.894C446.486 116.549 447.824 111.197 447.824 103.838V49.6474H481.084V104.841C481.084 119.846 476.783 131.506 468.181 139.821C459.579 148.136 447.585 152.294 432.197 152.294ZM603.826 49.6474L561.391 150H528.132L485.697 49.6474H522.11L546.052 108.282L570.566 49.6474H603.826ZM690.629 124.482V150H607.193V49.6474H688.765V75.1656H640.453V86.9212H682.887V111.293H640.453V124.482H690.629ZM741.071 152.294C732.756 152.294 724.632 151.386 716.699 149.57C708.862 147.658 702.411 145.126 697.346 141.972L708.241 117.314C713.02 120.085 718.372 122.331 724.297 124.052C730.223 125.676 735.91 126.489 741.357 126.489C746.041 126.489 749.386 126.059 751.393 125.199C753.4 124.243 754.403 122.857 754.403 121.041C754.403 118.938 753.065 117.362 750.389 116.31C747.809 115.259 743.508 114.112 737.487 112.87C729.745 111.245 723.294 109.524 718.133 107.709C712.972 105.797 708.48 102.739 704.657 98.5334C700.834 94.2326 698.923 88.4504 698.923 81.1868C698.923 74.8789 700.691 69.1445 704.227 63.9835C707.763 58.8225 713.02 54.7606 719.997 51.7978C727.069 48.835 735.623 47.3536 745.658 47.3536C752.54 47.3536 759.277 48.1182 765.872 49.6474C772.562 51.081 778.44 53.2314 783.505 56.0986L773.327 80.6133C763.483 75.6435 754.164 73.1586 745.371 73.1586C736.674 73.1586 732.326 75.2612 732.326 79.4665C732.326 81.4735 733.616 83.0027 736.196 84.054C738.777 85.0097 743.03 86.0611 748.956 87.2079C756.601 88.6416 763.053 90.3141 768.309 92.2256C773.566 94.0415 778.106 97.0521 781.929 101.257C785.847 105.463 787.806 111.197 787.806 118.461C787.806 124.768 786.038 130.503 782.502 135.664C778.966 140.729 773.661 144.791 766.589 147.85C759.612 150.812 751.106 152.294 741.071 152.294ZM977.162 132.797H963.83V150H931V132.797H878.96V111.293L921.538 49.6474H956.232L918.385 106.562H932.004V91.222H963.83V106.562H977.162V132.797ZM1033.92 152.294C1018.53 152.294 1006.54 148.136 997.937 139.821C989.336 131.506 985.035 119.846 985.035 104.841V49.6474H1018.87V103.838C1018.87 111.197 1020.16 116.549 1022.74 119.894C1025.41 123.239 1029.24 124.912 1034.21 124.912C1039.18 124.912 1042.95 123.239 1045.53 119.894C1048.21 116.549 1049.55 111.197 1049.55 103.838V49.6474H1082.81V104.841C1082.81 119.846 1078.51 131.506 1069.9 139.821C1061.3 148.136 1049.31 152.294 1033.92 152.294Z" fill="white"/>
<path d="M432.641 261.697H396.465L389.333 278.441H375.483L408.042 206.089H421.272L453.933 278.441H439.876L432.641 261.697ZM428.197 251.154L414.553 219.526L401.013 251.154H428.197ZM463.135 206.089H476.572V278.441H463.135V206.089ZM524.707 206.089H538.144V278.441H524.707V206.089ZM622.003 206.089V278.441H610.944L571.047 229.449V278.441H557.713V206.089H568.773L608.67 255.082V206.089H622.003ZM707.036 206.089L675.511 278.441H662.281L630.653 206.089H645.227L669.31 261.904L693.599 206.089H707.036ZM768.935 267.175V278.441H714.671V206.089H767.488V217.356H728.108V236.167H763.044V247.227H728.108V267.175H768.935ZM806.343 279.475C800.762 279.475 795.353 278.683 790.116 277.098C784.948 275.513 780.848 273.411 777.816 270.793L782.467 260.353C785.43 262.696 789.048 264.626 793.32 266.142C797.661 267.589 802.002 268.312 806.343 268.312C811.718 268.312 815.715 267.451 818.333 265.728C821.021 264.005 822.364 261.732 822.364 258.906C822.364 256.839 821.606 255.151 820.09 253.842C818.643 252.464 816.783 251.396 814.509 250.638C812.235 249.88 809.134 249.018 805.206 248.054C799.694 246.744 795.215 245.435 791.77 244.126C788.393 242.817 785.465 240.784 782.984 238.028C780.572 235.202 779.366 231.413 779.366 226.658C779.366 222.661 780.434 219.044 782.571 215.805C784.776 212.498 788.049 209.879 792.39 207.95C796.8 206.02 802.175 205.056 808.514 205.056C812.924 205.056 817.265 205.607 821.537 206.71C825.81 207.812 829.496 209.397 832.597 211.464L828.359 221.903C825.189 220.043 821.882 218.63 818.437 217.666C814.991 216.701 811.649 216.219 808.411 216.219C803.105 216.219 799.143 217.114 796.524 218.906C793.975 220.698 792.7 223.075 792.7 226.038C792.7 228.105 793.423 229.793 794.87 231.103C796.386 232.412 798.281 233.445 800.555 234.203C802.829 234.961 805.93 235.823 809.858 236.787C815.232 238.028 819.642 239.337 823.088 240.715C826.533 242.024 829.462 244.057 831.873 246.813C834.354 249.57 835.594 253.29 835.594 257.976C835.594 261.973 834.492 265.59 832.287 268.829C830.151 272.068 826.878 274.652 822.468 276.581C818.058 278.51 812.683 279.475 806.343 279.475ZM862.586 217.459H838.606V206.089H900.002V217.459H876.023V278.441H862.586V217.459ZM910.086 206.089H923.523V278.441H910.086V206.089ZM1007.38 206.089V278.441H996.323L956.426 229.449V278.441H943.093V206.089H954.152L994.049 255.082V206.089H1007.38ZM1076.18 241.439H1088.89V270.276C1085.17 273.239 1080.83 275.513 1075.87 277.098C1070.9 278.683 1065.81 279.475 1060.57 279.475C1053.2 279.475 1046.55 277.89 1040.62 274.72C1034.69 271.482 1030.04 267.037 1026.67 261.387C1023.29 255.737 1021.6 249.363 1021.6 242.265C1021.6 235.168 1023.29 228.794 1026.67 223.144C1030.04 217.493 1034.69 213.083 1040.62 209.914C1046.62 206.675 1053.33 205.056 1060.78 205.056C1066.84 205.056 1072.35 206.055 1077.31 208.053C1082.27 210.052 1086.44 212.98 1089.82 216.839L1081.34 225.108C1075.83 219.595 1069.18 216.839 1061.4 216.839C1056.3 216.839 1051.75 217.907 1047.75 220.043C1043.82 222.179 1040.72 225.177 1038.45 229.035C1036.24 232.894 1035.14 237.304 1035.14 242.265C1035.14 247.089 1036.24 251.43 1038.45 255.289C1040.72 259.148 1043.82 262.179 1047.75 264.384C1051.75 266.589 1056.26 267.692 1061.29 267.692C1066.94 267.692 1071.9 266.452 1076.18 263.971V241.439Z" fill="white"/>
<defs>
<linearGradient id="paint0_linear_777_845" x1="97.4067" y1="12.0726" x2="218.321" y2="303.986" gradientUnits="userSpaceOnUse">
<stop stop-color="#6262E8"/>
<stop offset="1" stop-color="#5353D5"/>
</linearGradient>
<linearGradient id="paint1_linear_777_845" x1="830.56" y1="21.3516" x2="830.56" y2="152.595" gradientUnits="userSpaceOnUse">
<stop stop-color="#6262E8"/>
<stop offset="1" stop-color="#5353D5"/>
</linearGradient>
<linearGradient id="paint2_linear_777_845" x1="830.56" y1="21.3516" x2="830.56" y2="152.595" gradientUnits="userSpaceOnUse">
<stop stop-color="#6262E8"/>
<stop offset="1" stop-color="#5353D5"/>
</linearGradient>
<clipPath id="clip0_777_845">
<rect width="316" height="316" fill="white"/>
</clipPath>
</defs>
</svg>
