<svg width="30" height="30" viewBox="0 0 30 30" fill="none" xmlns="http://www.w3.org/2000/svg">
<path fill-rule="evenodd" clip-rule="evenodd" d="M3.04206 12.2008L8.92319 7.0535C8.84169 6.83088 8.79725 6.5905 8.79725 6.33969C8.79725 5.19294 9.72688 4.26338 10.8736 4.26338C11.9984 4.26338 12.9142 5.15775 12.9489 6.27413L17.5971 7.9015C17.9779 7.45444 18.5449 7.17088 19.1782 7.17088C19.5355 7.17088 19.8717 7.26113 20.1653 7.42007L25.5239 2.84163C25.4479 2.62575 25.4064 2.39363 25.4064 2.15175C25.4064 1.00506 26.3361 0.0754395 27.4827 0.0754395C28.6296 0.0754395 29.5592 1.00506 29.5592 2.15175C29.5592 3.29856 28.6296 4.22819 27.4827 4.22819C27.1255 4.22819 26.7893 4.13794 26.4958 3.979L21.1371 8.55744C21.2131 8.77332 21.2546 9.00544 21.2546 9.24732C21.2546 10.394 20.3249 11.3236 19.1781 11.3236C18.0534 11.3236 17.1376 10.4293 17.1029 9.31294L12.4547 7.68557C12.0738 8.13263 11.5069 8.41619 10.8736 8.41619C10.5249 8.41619 10.1964 8.33013 9.90788 8.17825L4.02675 13.3255C4.10825 13.5481 4.15269 13.7885 4.15269 14.0393C4.15269 15.1861 3.22306 16.1156 2.07625 16.1156C0.929625 16.1155 0 15.186 0 14.0392C0 12.8924 0.929625 11.9629 2.07631 11.9629C2.425 11.9629 2.75356 12.0489 3.04206 12.2008ZM25.9032 8.32863C25.3869 8.32863 24.9657 8.74975 24.9657 9.26613V28.3991C24.9657 28.9155 25.3869 29.3366 25.9032 29.3366H29.0625C29.5789 29.3366 30.0001 28.9155 30.0001 28.3991V9.26613C30.0001 8.74975 29.579 8.32863 29.0625 8.32863H25.9032ZM17.5986 15.9743C17.0822 15.9743 16.6611 16.3954 16.6611 16.9118V28.5951C16.6611 29.1116 17.0823 29.5326 17.5986 29.5326H20.7579C21.2743 29.5326 21.6954 29.1115 21.6954 28.5951C21.6954 24.7008 21.6954 20.8063 21.6954 16.9118C21.6954 16.3954 21.2743 15.9743 20.7579 15.9743C19.7048 15.9743 18.6518 15.9743 17.5986 15.9743ZM9.294 13.2294C8.77756 13.2294 8.35644 13.6506 8.35644 14.1669V28.7911C8.35644 29.3075 8.7775 29.7286 9.294 29.7286H12.4532C12.9696 29.7286 13.3907 29.3075 13.3907 28.7911V14.1669C13.3907 13.6506 12.9696 13.2294 12.4532 13.2294H9.294ZM0.989375 21.2993H4.14856C4.66494 21.2993 5.08612 21.7204 5.08612 22.2368V28.9871C5.08612 29.5034 4.66494 29.9246 4.14856 29.9246H0.989375C0.473 29.9246 0.0518125 29.5034 0.0518125 28.9871V22.2368C0.051875 21.7203 0.473063 21.2993 0.989375 21.2993Z" fill="white"/>
</svg>
