<svg width="28" height="32" viewBox="0 0 28 32" fill="none" xmlns="http://www.w3.org/2000/svg">
<path fill-rule="evenodd" clip-rule="evenodd" d="M18.2627 9.47272C18.1071 9.3395 17.9269 9.23824 17.7322 9.17471C17.5375 9.11118 17.3322 9.08663 17.1281 9.10246C16.9239 9.11829 16.7248 9.1742 16.5423 9.26698C16.3597 9.35977 16.1972 9.48761 16.0641 9.64322L13.0682 13.1383L11.912 11.8501C11.6351 11.5423 11.2473 11.3572 10.8338 11.3354C10.4204 11.3135 10.0153 11.4568 9.70752 11.7337C9.39976 12.0106 9.2146 12.3985 9.19278 12.8119C9.17096 13.2253 9.31427 13.6305 9.59117 13.9382L11.9349 16.5483C12.081 16.7109 12.2597 16.8408 12.4594 16.9297C12.6591 17.0185 12.8753 17.0643 13.0939 17.064C13.113 17.064 13.1325 17.064 13.1519 17.0631C13.3785 17.0551 13.6006 16.9977 13.8027 16.8951C14.0048 16.7925 14.1821 16.647 14.3223 16.4688L18.4344 11.6719C18.7028 11.3573 18.8355 10.9491 18.8034 10.5369C18.7713 10.1246 18.5769 9.74189 18.263 9.47272H18.2627ZM26.9658 11.0982C26.8834 10.6022 26.6747 10.1358 26.3598 9.74392C26.0449 9.35203 25.6343 9.04784 25.1677 8.86065L24.6771 8.65828C24.2582 8.48964 23.9078 8.18547 23.682 7.79437C23.4562 7.40327 23.368 6.94778 23.4314 6.50065L23.5015 5.9744C23.5676 5.47708 23.507 4.97114 23.3254 4.50346C23.1439 4.03579 22.8472 3.62152 22.4628 3.29905C22.0785 2.97659 21.619 2.75636 21.1269 2.65878C20.6348 2.5612 20.126 2.58942 19.6477 2.74084L19.1415 2.90078C18.7121 3.04086 18.2482 3.03305 17.8239 2.8786C17.3995 2.72416 17.0391 2.43198 16.8002 2.04872L16.5157 1.60072C16.2465 1.17728 15.8749 0.828631 15.4351 0.587074C14.9954 0.345518 14.5018 0.218872 14 0.218872C13.4983 0.218872 13.0047 0.345518 12.565 0.587074C12.1252 0.828631 11.7536 1.17728 11.4844 1.60072L11.2002 2.04872C10.9613 2.43194 10.6009 2.72408 10.1765 2.87853C9.75218 3.03297 9.28831 3.0408 8.85898 2.90078L8.3533 2.74084C7.87498 2.58935 7.36616 2.56107 6.874 2.65861C6.38184 2.75616 5.92227 2.97638 5.53789 3.29885C5.15351 3.62132 4.85676 4.03562 4.67515 4.50333C4.49354 4.97104 4.43294 5.47703 4.49898 5.9744L4.5688 6.50065C4.6323 6.94778 4.54413 7.40328 4.31836 7.79441C4.09258 8.18553 3.74224 8.48971 3.3233 8.65834L2.83261 8.86072C2.36877 9.05215 1.96078 9.3576 1.64645 9.74874C1.33212 10.1399 1.12164 10.6041 1.03452 11.0982C0.947402 11.5924 0.98646 12.1006 1.14808 12.5756C1.30969 13.0507 1.58864 13.4772 1.95905 13.8157L2.3508 14.1733C2.68669 14.4751 2.91178 14.8808 2.99014 15.3255C3.0685 15.7703 2.99561 16.2284 2.78311 16.6269L2.53748 17.097C2.30514 17.5418 2.18888 18.038 2.19947 18.5397C2.21007 19.0415 2.34718 19.5324 2.5981 19.967C2.84901 20.4015 3.20561 20.7657 3.63481 21.0258C4.06401 21.2858 4.55192 21.4332 5.0533 21.4544L5.58317 21.4771C5.5858 21.4771 5.58755 21.4777 5.59023 21.4777L2.64442 28.4157C2.60936 28.4987 2.59895 28.5901 2.61444 28.6789C2.62993 28.7677 2.67067 28.8501 2.73177 28.9164C2.79287 28.9826 2.87176 29.0298 2.959 29.0524C3.04625 29.075 3.13815 29.072 3.22373 29.0438L7.22448 27.7132L9.0458 31.5152C9.08395 31.5948 9.14386 31.662 9.2186 31.7091C9.29333 31.7561 9.37986 31.7811 9.46817 31.7811H9.4788C9.56905 31.7791 9.65682 31.7511 9.73157 31.7005C9.80632 31.6499 9.86488 31.5788 9.90023 31.4957L12.614 25.102L12.7544 24.9938C13.1099 24.7153 13.5485 24.564 14.0001 24.564C14.4517 24.564 14.8903 24.7153 15.2458 24.9938L15.3866 25.102L18.1003 31.4957C18.1356 31.5787 18.1941 31.6498 18.2689 31.7004C18.3436 31.7511 18.4313 31.7791 18.5215 31.7811H18.532C18.6204 31.7811 18.7069 31.7562 18.7816 31.7091C18.8564 31.662 18.9163 31.5948 18.9544 31.5152L20.7757 27.7132L24.7757 29.0438C24.8614 29.0722 24.9534 29.0753 25.0407 29.0528C25.1281 29.0302 25.2071 28.983 25.2683 28.9167C25.3295 28.8504 25.3703 28.7679 25.3858 28.679C25.4013 28.5901 25.3908 28.4987 25.3557 28.4156L22.4103 21.4777C22.4127 21.4777 22.4144 21.4771 22.4171 21.4771L22.9469 21.4544C23.4482 21.4333 23.9361 21.2859 24.3653 21.0259C24.7945 20.7659 25.151 20.4018 25.4019 19.9672C25.6528 19.5327 25.79 19.0418 25.8006 18.5402C25.8112 18.0385 25.695 17.5423 25.4627 17.0975L25.217 16.6269C25.0045 16.2284 24.9317 15.7703 25.01 15.3255C25.0884 14.8808 25.3135 14.4751 25.6494 14.1733L26.0414 13.8157C26.4158 13.4802 26.6975 13.0539 26.8594 12.578C27.0213 12.102 27.0579 11.5924 26.9657 11.0982H26.9658ZM9.44255 30.174L7.89161 26.9357C7.84231 26.8327 7.75711 26.7513 7.65201 26.7066C7.54691 26.662 7.42914 26.6573 7.3208 26.6933L3.91323 27.8264L6.49942 21.7339C6.75106 21.8743 6.96979 22.0669 7.14096 22.2987C7.31213 22.5305 7.43179 22.7963 7.49192 23.0781L7.60648 23.5965C7.70968 24.0884 7.93783 24.5455 8.26896 24.9237C8.60009 25.3018 9.02304 25.5883 9.49705 25.7556C9.82887 25.8778 10.1796 25.9409 10.5332 25.942C10.786 25.942 11.0376 25.9083 11.2815 25.842L9.44255 30.174ZM14.0002 20.0352C12.6247 20.0352 11.2801 19.6273 10.1364 18.8632C8.99277 18.099 8.10138 17.0129 7.575 15.7421C7.04862 14.4713 6.9109 13.073 7.17924 11.724C7.44757 10.3749 8.10993 9.13576 9.08254 8.16316C10.0551 7.19056 11.2943 6.52822 12.6434 6.25989C13.9924 5.99156 15.3907 6.1293 16.6615 6.65569C17.9323 7.18209 19.0184 8.07348 19.7825 9.21716C20.5467 10.3608 20.9545 11.7054 20.9545 13.0809C20.9523 14.9246 20.2189 16.6922 18.9152 17.9959C17.6115 19.2996 15.8439 20.033 14.0002 20.0352ZM24.087 27.8264L20.6794 26.6933C20.5711 26.6574 20.4534 26.6621 20.3484 26.7068C20.2434 26.7514 20.1582 26.8328 20.1089 26.9357L18.5577 30.174L16.7189 25.8413C17.1079 25.9427 17.5133 25.9648 17.911 25.9061C18.3087 25.8474 18.6905 25.7091 19.0335 25.4996C19.3766 25.2901 19.6739 25.0136 19.9078 24.6866C20.1416 24.3596 20.3072 23.9888 20.3945 23.5965L20.5082 23.0781C20.5683 22.7962 20.688 22.5305 20.8592 22.2987C21.0304 22.0669 21.2491 21.8743 21.5008 21.7339L24.087 27.8264Z" fill="white"/>
</svg>
