<svg width="24" height="24" viewBox="0 0 24 24" fill="none" xmlns="http://www.w3.org/2000/svg">
<path d="M18.2464 15.8765C17.4623 15.1024 16.4834 15.1024 15.7043 15.8765C15.11 16.4658 14.5157 17.0551 13.9314 17.6544C13.7716 17.8192 13.6367 17.8542 13.442 17.7443C13.0574 17.5346 12.6479 17.3648 12.2783 17.135C10.5553 16.0513 9.11203 14.6579 7.83352 13.0897C7.19926 12.3107 6.63492 11.4766 6.24038 10.5377C6.16047 10.3479 6.17545 10.2231 6.33027 10.0683C6.92458 9.49394 7.5039 8.90463 8.08822 8.31531C8.90227 7.49627 8.90227 6.53739 8.08323 5.71335C7.61877 5.2439 7.15431 4.78443 6.68985 4.31498C6.21041 3.83554 5.73597 3.3511 5.25153 2.87666C4.46745 2.11255 3.48859 2.11255 2.7095 2.88165C2.1102 3.47096 1.53587 4.07526 0.926577 4.65458C0.362235 5.18896 0.0775671 5.8432 0.017637 6.60731C-0.0772523 7.85085 0.227392 9.02449 0.656891 10.1682C1.53587 12.5354 2.8743 14.6379 4.49741 16.5657C6.68985 19.1726 9.3068 21.2352 12.3682 22.7235C13.7466 23.3927 15.175 23.9071 16.7281 23.992C17.7969 24.052 18.7258 23.7823 19.4699 22.9482C19.9793 22.3789 20.5537 21.8595 21.0931 21.3151C21.8921 20.5061 21.8971 19.5272 21.103 18.7282C20.1541 17.7743 19.2003 16.8254 18.2464 15.8765Z" fill="white"/>
<path d="M17.2926 11.8961L19.1354 11.5815C18.8458 9.88849 18.0467 8.35528 16.8331 7.1367C15.5496 5.8532 13.9265 5.04414 12.1386 4.79443L11.8789 6.64727C13.2623 6.84205 14.5208 7.46632 15.5147 8.46016C16.4536 9.39906 17.0679 10.5877 17.2926 11.8961Z" fill="white"/>
<path d="M20.1741 3.88547C18.0466 1.75795 15.3548 0.414516 12.3832 0L12.1235 1.85284C14.6905 2.21242 17.0178 3.37606 18.8557 5.20892C20.5986 6.95189 21.7423 9.15432 22.1568 11.5765L23.9997 11.2619C23.5152 8.45514 22.1918 5.90811 20.1741 3.88547Z" fill="white"/>
</svg>
