<svg width="30" height="30" viewBox="0 0 30 30" fill="none" xmlns="http://www.w3.org/2000/svg">
<path fill-rule="evenodd" clip-rule="evenodd" d="M25.3332 24.3335V19.6668C25.3332 18.3775 24.2878 17.3335 22.9998 17.3335H21.6665C21.1145 17.3335 20.6665 17.7815 20.6665 18.3335V25.6668C20.6665 26.2188 21.1145 26.6668 21.6665 26.6668H22.9998C24.2878 26.6668 25.3332 25.6228 25.3332 24.3335Z" fill="white"/>
<path fill-rule="evenodd" clip-rule="evenodd" d="M4.33333 26.6668L5.71867 26.6655C6.24667 26.6388 6.66667 26.2015 6.66667 25.6668V18.3335C6.66667 17.7815 6.21867 17.3335 5.66667 17.3335H4.33333C3.04533 17.3335 2 18.3775 2 19.6668V24.3335C2 25.6228 3.04533 26.6668 4.33333 26.6668Z" fill="white"/>
<path fill-rule="evenodd" clip-rule="evenodd" d="M4 20.3333V11C4 10.448 3.552 10 3 10C2.448 10 2 10.448 2 11V20.3333C2 20.8853 2.448 21.3333 3 21.3333C3.552 21.3333 4 20.8853 4 20.3333Z" fill="white"/>
<path d="M2.99984 12.0002C4.2885 12.0002 5.33317 10.9555 5.33317 9.66683C5.33317 8.37817 4.2885 7.3335 2.99984 7.3335C1.71117 7.3335 0.666504 8.37817 0.666504 9.66683C0.666504 10.9555 1.71117 12.0002 2.99984 12.0002Z" fill="white"/>
<path fill-rule="evenodd" clip-rule="evenodd" d="M29.333 3.00008C29.333 2.38141 29.0877 1.78808 28.649 1.35075C28.2117 0.912081 27.6183 0.666748 26.9997 0.666748C24.6903 0.666748 19.9757 0.666748 17.6663 0.666748C17.0477 0.666748 16.4543 0.912081 16.017 1.35075C15.5783 1.78808 15.333 2.38141 15.333 3.00008V7.88941C15.333 9.17741 16.3783 10.2227 17.6663 10.2227H18.585L20.5143 12.1521C20.905 12.5427 21.5383 12.5427 21.929 12.1521L23.8583 10.2227H26.9997C28.2877 10.2227 29.333 9.17741 29.333 7.88941V3.00008Z" fill="white"/>
<path fill-rule="evenodd" clip-rule="evenodd" d="M22.6665 27V16.3333C22.6665 15.044 21.6212 14 20.3332 14C17.3198 14 10.0132 14 6.99984 14C5.71184 14 4.6665 15.044 4.6665 16.3333V27C4.6665 28.2893 5.71184 29.3333 6.99984 29.3333H20.3332C21.6212 29.3333 22.6665 28.2893 22.6665 27ZM9.62784 23.66C10.6985 24.732 12.1518 25.3333 13.6665 25.3333C15.1812 25.3333 16.6345 24.732 17.7052 23.66C18.0958 23.2707 18.0958 22.636 17.7052 22.2467C17.3158 21.856 16.6812 21.856 16.2918 22.2467C15.5945 22.9427 14.6505 23.3333 13.6665 23.3333C12.6825 23.3333 11.7385 22.9427 11.0412 22.2467C10.6518 21.856 10.0172 21.856 9.62784 22.2467C9.23717 22.636 9.23717 23.2707 9.62784 23.66ZM10.3332 17.6667C11.0692 17.6667 11.6665 18.264 11.6665 19C11.6665 19.736 11.0692 20.3333 10.3332 20.3333C9.59717 20.3333 8.99984 19.736 8.99984 19C8.99984 18.264 9.59717 17.6667 10.3332 17.6667ZM16.9998 17.6667C17.7358 17.6667 18.3332 18.264 18.3332 19C18.3332 19.736 17.7358 20.3333 16.9998 20.3333C16.2638 20.3333 15.6665 19.736 15.6665 19C15.6665 18.264 16.2638 17.6667 16.9998 17.6667Z" fill="white"/>
</svg>
