<svg width="22" height="22" viewBox="0 0 22 22" fill="none" xmlns="http://www.w3.org/2000/svg">
<path fill-rule="evenodd" clip-rule="evenodd" d="M11 0C4.92487 0 0 4.92487 0 11C0 17.0751 4.92487 22 11 22C17.0751 22 22 17.0751 22 11C22 4.92487 17.0751 0 11 0ZM16.2071 8.70711C16.5976 8.31658 16.5976 7.68342 16.2071 7.29289C15.8166 6.90237 15.1834 6.90237 14.7929 7.29289L9.5 12.5858L7.20711 10.2929C6.81658 9.90237 6.18342 9.90237 5.79289 10.2929C5.40237 10.6834 5.40237 11.3166 5.79289 11.7071L8.79289 14.7071C9.18342 15.0976 9.81658 15.0976 10.2071 14.7071L16.2071 8.70711Z" fill="#AC6AFF"/>
</svg>
