<svg width="25" height="24" viewBox="0 0 25 24" fill="none" xmlns="http://www.w3.org/2000/svg">
<g clip-path="url(#clip0_295_12072)">
<path d="M12.8303 3.90861V2.36204H15.1502C15.5579 2.36204 15.811 2.03866 15.5017 1.78559L14.7846 1.18102L15.4876 0.59051C15.7407 0.407733 15.6142 0 15.3048 0H12.4929C12.3101 0 12.1695 0.140598 12.1695 0.323374V3.90861C8.26091 4.07733 5.13965 7.31107 5.13965 11.2619C5.13965 14.5518 6.34879 15.536 7.51575 16.464C8.42963 17.1951 9.28728 17.884 9.28728 19.9789C9.28728 20.3304 9.42787 20.6397 9.66689 20.8647C9.89185 21.0896 10.2012 21.2443 10.5527 21.2443H14.4472C14.7846 21.2443 15.108 21.0896 15.333 20.8647C15.5579 20.6397 15.6985 20.3304 15.6985 19.9789C15.6985 17.884 16.5702 17.1951 17.4841 16.464C18.637 15.536 19.8602 14.5518 19.8602 11.2619C19.8602 7.31107 16.7389 4.07733 12.8303 3.90861ZM8.65459 11.7821C8.65459 10.9807 9.3154 10.3199 10.1309 10.3199C10.9463 10.3199 11.6071 10.9807 11.6071 11.7821C11.6071 12.5975 10.9463 13.2583 10.1309 13.2583C9.3154 13.2583 8.65459 12.5975 8.65459 11.7821ZM12.4929 15.1705C13.688 15.1705 14.644 16.1265 14.644 17.3076C14.644 18.4886 13.688 19.4587 12.4929 19.4587C11.3119 19.4587 10.3558 18.4886 10.3558 17.3076C10.3558 16.1265 11.3119 15.1705 12.4929 15.1705ZM12.7038 13.2443C12.7038 12.7663 13.0975 12.3726 13.5755 12.3726C14.0535 12.3726 14.4472 12.7663 14.4472 13.2443C14.4472 13.7223 14.0535 14.116 13.5755 14.116C13.0975 14.116 12.7038 13.7223 12.7038 13.2443ZM8.94984 9.12478C8.31715 9.12478 7.811 8.60457 7.811 7.98594C7.811 7.35325 8.31715 6.8471 8.94984 6.8471C9.58253 6.8471 10.0887 7.35325 10.0887 7.98594C10.0887 8.60457 9.58253 9.12478 8.94984 9.12478ZM14.2222 11.1213C13.0412 11.1213 12.0711 10.1511 12.0711 8.97012C12.0711 7.7891 13.0412 6.83304 14.2222 6.83304C15.4033 6.83304 16.3593 7.7891 16.3593 8.97012C16.3593 10.1511 15.4033 11.1213 14.2222 11.1213ZM16.3312 12.1617C16.3312 11.5009 16.8655 10.9666 17.5263 10.9666C18.1871 10.9666 18.7214 11.5009 18.7214 12.1617C18.7214 12.8225 18.1871 13.3568 17.5263 13.3568C16.8655 13.3568 16.3312 12.8225 16.3312 12.1617ZM10.8479 23.3392C10.6651 23.3392 10.5245 23.4798 10.5245 23.6626C10.5245 23.8453 10.6651 24 10.8479 24H14.1379C14.3207 24 14.4753 23.8453 14.4753 23.6626C14.4753 23.4798 14.3207 23.3392 14.1379 23.3392H10.8479ZM9.99026 21.9895C9.80749 21.9895 9.66689 22.1441 9.66689 22.3128C9.66689 22.4956 9.80749 22.6503 9.99026 22.6503H15.0096C15.1924 22.6503 15.333 22.4956 15.333 22.3128C15.333 22.1441 15.1924 21.9895 15.0096 21.9895H9.99026Z" fill="#12131A"/>
</g>
<defs>
<clipPath id="clip0_295_12072">
<rect width="24" height="24" fill="white" transform="translate(0.5)"/>
</clipPath>
</defs>
</svg>
