<svg width="36" height="38" viewBox="0 0 36 38" fill="none" xmlns="http://www.w3.org/2000/svg">
<path d="M7.5 9.8125H20.625C20.9731 9.8125 21.3069 9.67422 21.5531 9.42808C21.7992 9.18194 21.9375 8.8481 21.9375 8.5C21.9375 8.1519 21.7992 7.81806 21.5531 7.57192C21.3069 7.32578 20.9731 7.1875 20.625 7.1875H7.5C7.1519 7.1875 6.81806 7.32578 6.57192 7.57192C6.32578 7.81806 6.1875 8.1519 6.1875 8.5C6.1875 8.8481 6.32578 9.18194 6.57192 9.42808C6.81806 9.67422 7.1519 9.8125 7.5 9.8125Z" fill="white"/>
<path d="M7.5 15.0625H20.625C20.9731 15.0625 21.3069 14.9242 21.5531 14.6781C21.7992 14.4319 21.9375 14.0981 21.9375 13.75C21.9375 13.4019 21.7992 13.0681 21.5531 12.8219C21.3069 12.5758 20.9731 12.4375 20.625 12.4375H7.5C7.1519 12.4375 6.81806 12.5758 6.57192 12.8219C6.32578 13.0681 6.1875 13.4019 6.1875 13.75C6.1875 14.0981 6.32578 14.4319 6.57192 14.6781C6.81806 14.9242 7.1519 15.0625 7.5 15.0625Z" fill="white"/>
<path d="M12.75 17.6875H7.5C7.1519 17.6875 6.81806 17.8258 6.57192 18.0719C6.32578 18.3181 6.1875 18.6519 6.1875 19C6.1875 19.3481 6.32578 19.6819 6.57192 19.9281C6.81806 20.1742 7.1519 20.3125 7.5 20.3125H12.75C13.0981 20.3125 13.4319 20.1742 13.6781 19.9281C13.9242 19.6819 14.0625 19.3481 14.0625 19C14.0625 18.6519 13.9242 18.3181 13.6781 18.0719C13.4319 17.8258 13.0981 17.6875 12.75 17.6875Z" fill="white"/>
<path d="M35.0625 15.6059C35.0639 15.0887 34.9628 14.5764 34.765 14.0986C34.5672 13.6208 34.2767 13.1869 33.9101 12.8221C33.1599 12.1061 32.1627 11.7067 31.1257 11.7067C30.0886 11.7067 29.0914 12.1061 28.3412 12.8221L27.1875 13.9757V4.5625C27.1875 3.51821 26.7727 2.51669 26.0342 1.77827C25.2958 1.03984 24.2943 0.625 23.25 0.625H4.875C3.83071 0.625 2.82919 1.03984 2.09077 1.77827C1.35234 2.51669 0.9375 3.51821 0.9375 4.5625V33.4375C0.9375 34.4818 1.35234 35.4833 2.09077 36.2217C2.82919 36.9602 3.83071 37.375 4.875 37.375H23.25C24.2943 37.375 25.2958 36.9602 26.0342 36.2217C26.7727 35.4833 27.1875 34.4818 27.1875 33.4375V25.111L33.9088 18.391C34.2759 18.0263 34.5669 17.5922 34.765 17.1141C34.963 16.636 35.0641 16.1234 35.0625 15.6059ZM24.5625 33.4375C24.5625 33.7856 24.4242 34.1194 24.1781 34.3656C23.9319 34.6117 23.5981 34.75 23.25 34.75H4.875C4.5269 34.75 4.19306 34.6117 3.94692 34.3656C3.70078 34.1194 3.5625 33.7856 3.5625 33.4375V4.5625C3.5625 4.2144 3.70078 3.88056 3.94692 3.63442C4.19306 3.38828 4.5269 3.25 4.875 3.25H23.25C23.5981 3.25 23.9319 3.38828 24.1781 3.63442C24.4242 3.88056 24.5625 4.2144 24.5625 4.5625V16.6007L15.9774 25.1845C15.7979 25.3642 15.6743 25.5922 15.6217 25.8407L14.6347 30.5408C14.5943 30.732 14.597 30.9297 14.6428 31.1197C14.6885 31.3096 14.7761 31.487 14.8991 31.6388C15.0221 31.7906 15.1774 31.913 15.3538 31.9971C15.5301 32.0812 15.723 32.1249 15.9184 32.125C16.0092 32.1249 16.0998 32.1156 16.1888 32.0974L20.8888 31.1091C21.1377 31.0567 21.3658 30.9326 21.5451 30.7521L24.5638 27.7334L24.5625 33.4375ZM32.0529 16.5338L19.9688 28.6206L17.6181 29.1141L18.1116 26.7648L30.1984 14.6779C30.4479 14.4384 30.7804 14.3047 31.1263 14.3047C31.4722 14.3047 31.8047 14.4384 32.0543 14.6779C32.3003 14.9241 32.4385 15.2578 32.4385 15.6059C32.4385 15.9539 32.299 16.2877 32.0529 16.5338Z" fill="white"/>
</svg>
