<svg width="25" height="24" viewBox="0 0 25 24" fill="none" xmlns="http://www.w3.org/2000/svg">
<path d="M3.5 9.75H5C5.20709 9.75 5.375 9.58209 5.375 9.375C5.375 9.16791 5.20709 9 5 9H3.5C3.29291 9 3.125 9.16791 3.125 9.375C3.125 9.58209 3.29291 9.75 3.5 9.75Z" fill="#12131A"/>
<path d="M19.625 9.375C19.625 9.58209 19.7929 9.75 20 9.75H21.5C21.7071 9.75 21.875 9.58209 21.875 9.375C21.875 9.16791 21.7071 9 21.5 9H20C19.7929 9 19.625 9.16791 19.625 9.375Z" fill="#12131A"/>
<path d="M5.87081 16.004C5.94403 16.0772 6.03999 16.1138 6.13599 16.1138C6.23194 16.1138 6.32794 16.0772 6.40116 16.004L7.46185 14.9434C7.60828 14.7969 7.60828 14.5595 7.46185 14.4131C7.31541 14.2666 7.07803 14.2666 6.9315 14.4131L5.87081 15.4737C5.72438 15.6201 5.72438 15.8576 5.87081 16.004Z" fill="#12131A"/>
<path d="M17.8032 4.44684C17.8992 4.44684 17.9952 4.41023 18.0684 4.33701L19.1291 3.27637C19.2755 3.12994 19.2755 2.89251 19.1291 2.74608C18.9827 2.59964 18.7453 2.59959 18.5987 2.74608L17.5381 3.80672C17.3916 3.95315 17.3916 4.19058 17.5381 4.33701C17.6113 4.41023 17.7072 4.44684 17.8032 4.44684Z" fill="#12131A"/>
<path d="M17.5381 14.4131C17.3916 14.5595 17.3916 14.7969 17.5381 14.9433L18.5987 16.004C18.672 16.0772 18.7679 16.1138 18.8639 16.1138C18.9599 16.1138 19.0559 16.0772 19.1291 16.004C19.2755 15.8576 19.2755 15.6201 19.1291 15.4737L18.0684 14.4131C17.922 14.2666 17.6846 14.2666 17.5381 14.4131Z" fill="#12131A"/>
<path d="M6.9315 4.337C7.00472 4.41021 7.10067 4.44682 7.19667 4.44682C7.29263 4.44682 7.38863 4.41021 7.46185 4.337C7.60828 4.19056 7.60828 3.95314 7.46185 3.8067L6.40116 2.74606C6.25467 2.59962 6.0173 2.59962 5.87081 2.74606C5.72438 2.8925 5.72438 3.12992 5.87081 3.27636L6.9315 4.337Z" fill="#12131A"/>
<path d="M4.10432 6.34566L5.48624 6.92892C5.53387 6.94903 5.58323 6.9585 5.63184 6.9585C5.77809 6.9585 5.91707 6.87244 5.97749 6.72924C6.05807 6.53841 5.96868 6.31847 5.77781 6.23794L4.39588 5.65463C4.20501 5.57405 3.98507 5.66349 3.90463 5.85432C3.82406 6.04514 3.91345 6.26508 4.10432 6.34566Z" fill="#12131A"/>
<path d="M5.48619 11.7317L4.10427 12.315C3.91349 12.3955 3.82405 12.6155 3.90463 12.8063C3.96505 12.9495 4.10404 13.0355 4.25028 13.0355C4.29889 13.0355 4.3483 13.026 4.39593 13.006L5.77785 12.4227C5.96863 12.3422 6.05807 12.1222 5.97749 11.9314C5.897 11.7406 5.67725 11.6513 5.48619 11.7317Z" fill="#12131A"/>
<path d="M19.0225 6.72916C19.083 6.87237 19.2219 6.95843 19.3682 6.95843C19.4167 6.95843 19.4662 6.94891 19.5138 6.92885L20.8957 6.34559C21.0865 6.26506 21.176 6.04507 21.0954 5.85429C21.0149 5.66351 20.7949 5.57407 20.6041 5.6546L19.2222 6.23787C19.0314 6.3184 18.942 6.53834 19.0225 6.72916Z" fill="#12131A"/>
<path d="M9.27966 2.68117C9.33873 2.82704 9.47916 2.91554 9.62743 2.91554C9.67426 2.91554 9.72193 2.90673 9.76796 2.88808C9.95996 2.8104 10.0526 2.59178 9.97491 2.39978L9.41218 1.00933C9.33446 0.817372 9.11574 0.724653 8.92388 0.802419C8.73188 0.880091 8.63926 1.09872 8.71693 1.29072L9.27966 2.68117Z" fill="#12131A"/>
<path d="M15.232 2.88808C15.2781 2.90673 15.3257 2.91554 15.3725 2.91554C15.5208 2.91554 15.6612 2.827 15.7203 2.68117L16.283 1.29072C16.3607 1.09872 16.2681 0.880091 16.0761 0.802419C15.884 0.724653 15.6654 0.817372 15.5878 1.00933L15.025 2.39978C14.9474 2.59178 15.04 2.8104 15.232 2.88808Z" fill="#12131A"/>
<path d="M20.6041 13.006C20.6518 13.0262 20.7011 13.0356 20.7498 13.0356C20.896 13.0356 21.035 12.9496 21.0954 12.8064C21.176 12.6156 21.0866 12.3956 20.8958 12.3151L19.5139 11.7318C19.3228 11.6512 19.103 11.7407 19.0226 11.9315C18.942 12.1223 19.0314 12.3422 19.2222 12.4228L20.6041 13.006Z" fill="#12131A"/>
<path d="M10.25 17.625H14.75V18.375H10.25V17.625Z" fill="#12131A"/>
<path d="M12.5 22.5C13.6129 22.5 14.5397 21.6878 14.7187 20.625H10.2812C10.4603 21.6878 11.3871 22.5 12.5 22.5Z" fill="#12131A"/>
<path d="M13.625 10.875H11V13.125H13.625C14.2453 13.125 14.75 12.6203 14.75 12C14.75 11.3797 14.2453 10.875 13.625 10.875Z" fill="#12131A"/>
<path d="M10.25 19.125H14.75V19.875H10.25V19.125Z" fill="#12131A"/>
<path d="M20.375 16.125C20.375 16.2624 20.3998 16.3941 20.4452 16.5159L19.1143 17.625H15.875C15.6679 17.625 15.5 17.7929 15.5 18C15.5 18.2071 15.6679 18.375 15.875 18.375H19.25C19.3377 18.375 19.4227 18.3442 19.49 18.2881L20.9256 17.0918C21.0938 17.1922 21.2903 17.25 21.5 17.25C22.1203 17.25 22.625 16.7453 22.625 16.125C22.625 15.5047 22.1203 15 21.5 15C20.8797 15 20.375 15.5047 20.375 16.125Z" fill="#12131A"/>
<path d="M22.625 21C22.4821 21 22.3455 21.027 22.2197 21.0758L20.6598 19.2559C20.5885 19.1729 20.4845 19.125 20.375 19.125H15.875C15.6679 19.125 15.5 19.2929 15.5 19.5C15.5 19.7071 15.6679 19.875 15.875 19.875H20.2025L21.6504 21.5642C21.5549 21.7294 21.5 21.9209 21.5 22.125C21.5 22.7453 22.0047 23.25 22.625 23.25C23.2453 23.25 23.75 22.7453 23.75 22.125C23.75 21.5047 23.2453 21 22.625 21Z" fill="#12131A"/>
<path d="M16.2455 13.9464C17.44 12.8797 18.125 11.3501 18.125 9.75C18.125 6.64847 15.6017 4.12509 12.5002 4.125C11.0051 4.12495 9.59824 4.70311 8.53872 5.75306C7.47916 6.80302 6.88835 8.20448 6.87522 9.69933C6.86078 11.3333 7.55599 12.8904 8.78252 13.9713C9.62402 14.7129 10.1417 15.7556 10.2348 16.875H14.7656C14.8612 15.7631 15.3887 14.7117 16.2455 13.9464ZM15.5 12C15.5 13.0339 14.6589 13.875 13.625 13.875V15C13.625 15.2071 13.4571 15.375 13.25 15.375C13.0429 15.375 12.875 15.2071 12.875 15V13.875H11.75V15C11.75 15.2071 11.5821 15.375 11.375 15.375C11.1679 15.375 11 15.2071 11 15V13.875H9.87499C9.66789 13.875 9.49999 13.7071 9.49999 13.5C9.49999 13.2929 9.66789 13.125 9.87499 13.125H10.25V7.875H9.87499C9.66789 7.875 9.49999 7.70709 9.49999 7.5C9.49999 7.29291 9.66789 7.125 9.87499 7.125H11V6C11 5.79291 11.1679 5.625 11.375 5.625C11.5821 5.625 11.75 5.79291 11.75 6V7.125H12.875V6C12.875 5.79291 13.0429 5.625 13.25 5.625C13.4571 5.625 13.625 5.79291 13.625 6V7.125C14.6589 7.125 15.5 7.96613 15.5 9C15.5 9.6127 15.2045 10.1576 14.7487 10.5C15.2045 10.8424 15.5 11.3873 15.5 12Z" fill="#12131A"/>
<path d="M13.625 7.875H11V10.125H13.625C14.2453 10.125 14.75 9.62034 14.75 9C14.75 8.37966 14.2453 7.875 13.625 7.875Z" fill="#12131A"/>
<path d="M9.125 17.625H5.88575L4.55483 16.5159C4.60016 16.3941 4.625 16.2624 4.625 16.125C4.625 15.5047 4.1203 15 3.5 15C2.8797 15 2.375 15.5047 2.375 16.125C2.375 16.7453 2.8797 17.25 3.5 17.25C3.70972 17.25 3.90612 17.1922 4.07441 17.0918L5.50995 18.2881C5.57736 18.3442 5.6623 18.375 5.75 18.375H9.125C9.33209 18.375 9.5 18.2071 9.5 18C9.5 17.7929 9.33209 17.625 9.125 17.625Z" fill="#12131A"/>
<path d="M9.125 19.125H4.625C4.51555 19.125 4.41153 19.1729 4.34028 19.2559L2.78038 21.0758C2.65447 21.027 2.51787 21 2.375 21C1.7547 21 1.25 21.5047 1.25 22.125C1.25 22.7453 1.7547 23.25 2.375 23.25C2.9953 23.25 3.5 22.7453 3.5 22.125C3.5 21.9209 3.44506 21.7294 3.34963 21.5642L4.7975 19.875H9.125C9.33209 19.875 9.5 19.7071 9.5 19.5C9.5 19.2929 9.33209 19.125 9.125 19.125Z" fill="#12131A"/>
</svg>
