<svg width="32" height="32" viewBox="0 0 32 32" fill="none" xmlns="http://www.w3.org/2000/svg">
<g clip-path="url(#clip0_46_19814)">
<path d="M27.6087 0.0724197C27.2589 -0.0749555 26.8561 0.0074196 26.587 0.27567L25.8106 1.05205C25.1025 1.75899 24.4062 1.87605 23.4998 1.87605C20.2146 1.87605 17.3929 3.78186 16.0001 6.52912C14.6104 3.78799 11.8993 1.87605 8.17893 1.87605C7.42731 1.87605 6.72149 1.58305 6.18956 1.05205L5.4133 0.275608C5.14412 0.0073571 4.74405 -0.0732055 4.39161 0.0723572C4.04099 0.216982 3.81299 0.559421 3.81299 0.938421V2.81336C3.81299 7.46593 7.59768 11.2506 12.2503 11.2506H15.0626V15.1572C12.1326 15.3099 9.43781 16.1818 9.43781 17.938C9.43781 19.8806 12.7336 20.7504 16.0001 20.7504C19.2667 20.7504 22.5625 19.8806 22.5625 17.938C22.5625 16.1819 19.8676 15.31 16.9376 15.1573V11.2506H19.7501C24.4027 11.2506 28.1873 7.46593 28.1873 2.81336V0.938421C28.1872 0.559421 27.9593 0.217045 27.6087 0.0724197Z" fill="white"/>
<path d="M15.9998 26.3758C13.1345 26.3758 10.8972 25.8155 9.4375 24.8438V25.4384C9.4375 27.3811 12.7333 28.2508 15.9998 28.2508C19.2664 28.2508 22.5622 27.3811 22.5622 25.4384V24.8438C21.1025 25.8155 18.8651 26.3758 15.9998 26.3758Z" fill="white"/>
<path d="M15.9999 30.1247C13.1346 30.1247 10.8973 29.5643 9.43756 28.5926C9.43756 28.9054 9.40231 29.2998 9.52006 29.5654C9.93225 31.2347 12.9609 31.9996 15.9999 31.9996C18.2535 31.9996 22.5622 31.4285 22.5622 29.1872V28.5925C21.1026 29.5643 18.8652 30.1247 15.9999 30.1247Z" fill="white"/>
<path d="M15.9998 22.6258C13.1345 22.6258 10.8972 22.0655 9.4375 21.0938V21.6884C9.4375 23.6311 12.7333 24.5008 15.9998 24.5008C19.2664 24.5008 22.5622 23.6311 22.5622 21.6884V21.0938C21.1025 22.0656 18.8651 22.6258 15.9998 22.6258Z" fill="white"/>
<path d="M6.62531 17C3.35887 17 0.000488281 17.8698 0.000488281 19.8124C0.000488281 21.7551 3.35874 22.6249 6.62531 22.6249C6.93913 22.6249 7.25144 22.6094 7.56281 22.5932V17.0317C7.25144 17.0154 6.93913 17 6.62531 17Z" fill="white"/>
<path d="M25.3745 17C25.0607 16.9999 24.7484 17.0154 24.437 17.0317V22.5931C24.7484 22.6094 25.0607 22.6248 25.3745 22.6248C28.641 22.6248 31.9993 21.7551 31.9993 19.8124C31.9993 17.8697 28.641 17 25.3745 17Z" fill="white"/>
<path d="M6.62531 24.5008C3.75999 24.5008 1.46018 23.9405 0.000488281 22.9688V23.5634C0.000488281 25.5061 3.35874 26.3758 6.62531 26.3758C6.93913 26.3758 7.25144 26.3604 7.56281 26.3441V24.4534C7.24881 24.4681 6.95625 24.5008 6.62531 24.5008Z" fill="white"/>
<path d="M6.62531 28.2496C3.75999 28.2496 1.46018 27.6893 0.000488281 26.7175V27.3122C0.000488281 29.2548 3.35881 30.1245 6.62531 30.1245C6.93913 30.1245 7.25144 30.1091 7.56281 30.0928V28.2021C7.24881 28.2168 6.95625 28.2496 6.62531 28.2496Z" fill="white"/>
<path d="M25.3745 24.4997C25.0436 24.4997 24.7511 24.467 24.437 24.4522V26.3429C24.7484 26.3592 25.0607 26.3746 25.3745 26.3746C28.641 26.3746 31.9993 25.5048 31.9993 23.5622V22.9675C30.5396 23.9394 28.2398 24.4997 25.3745 24.4997Z" fill="white"/>
<path d="M25.3745 28.2497C25.0436 28.2497 24.7511 28.217 24.437 28.2022V30.0929C24.7484 30.1092 25.0607 30.1246 25.3745 30.1246C28.641 30.1246 31.9993 29.2548 31.9993 27.3122V26.7175C30.5396 27.6893 28.2398 28.2497 25.3745 28.2497Z" fill="white"/>
</g>
<defs>
<clipPath id="clip0_46_19814">
<rect width="32" height="32" fill="white"/>
</clipPath>
</defs>
</svg>
