<svg width="32" height="32" viewBox="0 0 32 32" fill="none" xmlns="http://www.w3.org/2000/svg">
<path d="M8.82289 5.91509L15.5878 5.91506C16.1056 5.54162 16.5242 5.04711 16.807 4.4747C17.0898 3.90229 17.2282 3.26936 17.2101 2.63117C17.2115 2.56514 17.1997 2.49951 17.1754 2.4381C17.1511 2.37669 17.1148 2.32073 17.0687 2.27349C17.0225 2.22625 16.9675 2.18867 16.9066 2.16295C16.8458 2.13723 16.7805 2.12388 16.7144 2.12369C15.0295 2.12369 9.38782 2.12369 7.69286 2.12366C7.62645 2.12388 7.56076 2.1374 7.49967 2.16344C7.43858 2.18947 7.38332 2.22749 7.33717 2.27523C7.29101 2.32298 7.25489 2.3795 7.23095 2.44144C7.207 2.50338 7.19571 2.56949 7.19774 2.63587C7.18035 3.2736 7.31937 3.90589 7.60266 4.47751C7.88595 5.04913 8.30489 5.54269 8.82289 5.91509Z" fill="white"/>
<path d="M8.86755 6.90625C8.70325 6.90625 8.54567 6.97152 8.42949 7.0877C8.31332 7.20388 8.24805 7.36145 8.24805 7.52575C8.24805 7.69005 8.31332 7.84762 8.42949 7.9638C8.54567 8.07998 8.70325 8.14525 8.86755 8.14525H15.5532C15.7175 8.14525 15.8751 8.07998 15.9913 7.9638C16.1075 7.84762 16.1727 7.69005 16.1727 7.52575C16.1727 7.36145 16.1075 7.20388 15.9913 7.0877C15.8751 6.97152 15.7175 6.90625 15.5532 6.90625H8.86755Z" fill="white"/>
<path d="M15.6275 23.1017C15.6291 21.3924 16.1999 19.7322 17.2499 18.3833C18.2999 17.0344 19.7693 16.0737 21.4261 15.6528C20.9504 14.3443 20.2456 13.1309 19.3445 12.0696C18.4524 10.9 17.4364 9.70059 16.1033 9.0365C15.9274 9.10264 15.741 9.13623 15.5531 9.13562H8.86743C8.67961 9.13579 8.49328 9.10221 8.31732 9.0365C6.98414 9.7105 5.9632 10.9 5.07608 12.0696C0.536331 17.2288 0.343037 29.5396 9.145 29.8766H15.2756C16.3895 29.8522 17.4836 29.5778 18.4772 29.0738C17.5868 28.354 16.8687 27.444 16.3756 26.4107C15.8825 25.3773 15.6269 24.2467 15.6275 23.1017ZM12.8868 19.7663C13.3749 19.7696 13.8419 19.9658 14.1859 20.3122C14.5299 20.6585 14.7229 21.1268 14.7229 21.6149C14.7229 22.103 14.5299 22.5713 14.1859 22.9177C13.8419 23.264 13.3749 23.4602 12.8868 23.4635H12.7084V23.9839C12.7061 24.1138 12.6529 24.2377 12.5602 24.3287C12.4675 24.4198 12.3427 24.4708 12.2128 24.4708C12.0828 24.4708 11.9581 24.4198 11.8654 24.3287C11.7727 24.2377 11.7195 24.1138 11.7172 23.9839V23.4635H10.1758C10.0462 23.4608 9.92285 23.4073 9.83216 23.3147C9.74147 23.222 9.69068 23.0976 9.69068 22.9679C9.69068 22.8383 9.74147 22.7138 9.83216 22.6212C9.92285 22.5285 10.0462 22.4751 10.1758 22.4723H11.7172V20.7575H11.5338C11.2841 20.7549 11.0375 20.702 10.8088 20.6018C10.5801 20.5016 10.374 20.3563 10.2028 20.1746C10.0316 19.9928 9.89884 19.7784 9.81252 19.5441C9.72619 19.3098 9.68807 19.0605 9.70042 18.8111C9.71277 18.5617 9.77535 18.3174 9.8844 18.0928C9.99345 17.8682 10.1467 17.6679 10.3351 17.5039C10.5234 17.34 10.7429 17.2157 10.9803 17.1387C11.2178 17.0616 11.4685 17.0333 11.7172 17.0554V16.535C11.7169 16.4698 11.7296 16.4052 11.7544 16.3448C11.7792 16.2845 11.8157 16.2297 11.8618 16.1835C11.9078 16.1373 11.9625 16.1007 12.0227 16.0757C12.083 16.0507 12.1475 16.0378 12.2128 16.0378C12.278 16.0378 12.3426 16.0507 12.4028 16.0757C12.463 16.1007 12.5177 16.1373 12.5638 16.1835C12.6098 16.2297 12.6463 16.2845 12.6711 16.3448C12.6959 16.4052 12.7086 16.4698 12.7084 16.535V17.0554H14.2448C14.3747 17.0577 14.4985 17.1109 14.5896 17.2036C14.6806 17.2963 14.7317 17.421 14.7317 17.551C14.7317 17.6809 14.6806 17.8057 14.5896 17.8984C14.4985 17.9911 14.3747 18.0443 14.2448 18.0466H12.7084V19.7663H12.8868Z" fill="white"/>
<path d="M11.7171 19.766V18.0462C11.5908 18.0225 11.4608 18.027 11.3364 18.0593C11.2119 18.0915 11.0962 18.1508 10.9973 18.2329C10.8983 18.315 10.8187 18.4179 10.7641 18.5342C10.7095 18.6506 10.6812 18.7775 10.6812 18.9061C10.6812 19.0346 10.7095 19.1616 10.7641 19.2779C10.8187 19.3943 10.8983 19.4972 10.9973 19.5793C11.0962 19.6613 11.2119 19.7206 11.3364 19.7529C11.4608 19.7852 11.5908 19.7896 11.7171 19.766Z" fill="white"/>
<path d="M12.7085 22.4731C12.835 22.4978 12.9654 22.4942 13.0903 22.4625C13.2153 22.4308 13.3317 22.3719 13.4312 22.29C13.5306 22.208 13.6108 22.1051 13.6658 21.9885C13.7208 21.8719 13.7493 21.7446 13.7493 21.6157C13.7493 21.4868 13.7208 21.3595 13.6658 21.243C13.6108 21.1264 13.5306 21.0235 13.4312 20.9415C13.3317 20.8596 13.2153 20.8006 13.0903 20.769C12.9654 20.7373 12.835 20.7337 12.7085 20.7583V22.4731Z" fill="white"/>
<path d="M23.3093 16.4114C21.986 16.4114 20.6925 16.8038 19.5922 17.539C18.4919 18.2741 17.6344 19.3191 17.128 20.5416C16.6216 21.7642 16.4891 23.1095 16.7472 24.4073C17.0054 25.7052 17.6426 26.8973 18.5783 27.833C19.514 28.7687 20.7062 29.406 22.004 29.6641C23.3019 29.9223 24.6472 29.7898 25.8697 29.2834C27.0923 28.777 28.1372 27.9194 28.8724 26.8192C29.6076 25.7189 30 24.4253 30 23.102C29.9981 21.3281 29.2926 19.6274 28.0383 18.373C26.784 17.1187 25.0832 16.4132 23.3093 16.4114ZM23.3093 28.3059C23.0152 28.3059 22.7278 28.2187 22.4833 28.0553C22.2388 27.8919 22.0482 27.6597 21.9357 27.388C21.8231 27.1164 21.7937 26.8174 21.8511 26.529C21.9084 26.2406 22.05 25.9757 22.258 25.7677C22.4659 25.5598 22.7308 25.4182 23.0192 25.3608C23.3077 25.3035 23.6066 25.3329 23.8783 25.4454C24.15 25.558 24.3822 25.7485 24.5455 25.993C24.7089 26.2375 24.7961 26.525 24.7961 26.8191C24.795 27.213 24.6379 27.5905 24.3594 27.8691C24.0808 28.1477 23.7033 28.3047 23.3093 28.3059ZM24.7961 23.3498C24.7961 23.7442 24.6395 24.1223 24.3606 24.4012C24.0818 24.68 23.7036 24.8366 23.3093 24.8366C22.915 24.8366 22.5368 24.68 22.258 24.4012C21.9791 24.1223 21.8225 23.7442 21.8225 23.3498V19.385C21.8225 18.9907 21.9791 18.6125 22.258 18.3337C22.5368 18.0548 22.915 17.8982 23.3093 17.8982C23.7036 17.8982 24.0818 18.0548 24.3606 18.3337C24.6395 18.6125 24.7961 18.9907 24.7961 19.385V23.3498Z" fill="white"/>
<path d="M23.3096 18.8894C23.2444 18.8892 23.1799 18.9018 23.1196 18.9267C23.0594 18.9515 23.0047 18.988 22.9586 19.0341C22.9126 19.0801 22.8761 19.1349 22.8512 19.1951C22.8264 19.2553 22.8137 19.3199 22.814 19.385V23.3498C22.814 23.4813 22.8662 23.6073 22.9591 23.7003C23.0521 23.7932 23.1781 23.8454 23.3096 23.8454C23.441 23.8454 23.5671 23.7932 23.66 23.7003C23.753 23.6073 23.8052 23.4813 23.8052 23.3498V19.385C23.8054 19.3199 23.7927 19.2553 23.7679 19.1951C23.7431 19.1349 23.7066 19.0801 23.6605 19.0341C23.6145 18.988 23.5597 18.9515 23.4995 18.9267C23.4393 18.9018 23.3747 18.8892 23.3096 18.8894Z" fill="white"/>
<path d="M23.3095 27.3139C23.5831 27.3139 23.805 27.092 23.805 26.8184C23.805 26.5447 23.5831 26.3229 23.3095 26.3229C23.0358 26.3229 22.814 26.5447 22.814 26.8184C22.814 27.092 23.0358 27.3139 23.3095 27.3139Z" fill="white"/>
</svg>
